<?xml version="1.0" ?><svg xmlns="http://www.w3.org/2000/svg" xmlns:xlink="http://www.w3.org/1999/xlink" version="1.1" id="Layer_1" viewBox="0 0 1000 1000" style="enable-background:new 0 0 1000 1000;" xml:space="preserve"><style type="text/css">
	.st0{fill:#ADAAD4;}
	.st1{fill:#F6AEC3;}
	.st2{fill:#F5EA85;}
	.st3{fill:#FDD677;}
	.st4{fill:#32C0CE;}
	.st5{fill:#FDD770;}
	.st6{fill:#FFFFFF;}
	.st7{fill:#73CBCA;}
	.st8{fill:#BFE5EB;}
	.st9{fill:#F4E884;}
	.st10{fill:#A29B97;}
	.st11{fill:#424C5C;}
	.st12{fill:#7183BD;}
	.st13{fill:#E7DC9D;}
	.st14{fill:#FCD76B;}
	.st15{fill:#AFCBE8;}
	.st16{fill:#EF4865;}
	.st17{fill:#A8C9DC;}
	.st18{fill:#9C9E9C;}
	.st19{fill:#F6DE62;}
	.st20{fill:#F7B0C0;}
	.st21{fill:#21C1E2;}
	.st22{fill:#F6E883;}
	.st23{fill:#A2CBE3;}
	.st24{fill:#FBDA74;}
	.st25{fill:#EF4B67;}
	.st26{fill:#B5DCE6;}
	.st27{fill:#B2D0E8;}
	.st28{fill:#AECDE9;}
	.st29{fill:#E99286;}
	.st30{fill:#F9BA73;}
	.st31{fill:#F0877F;}
	.st32{fill:#BDC579;}
	.st33{fill:#FED56E;}
	.st34{fill:#C5DB86;}
	.st35{fill:#FCBF6B;}
	.st36{fill:#F8BC70;}
	.st37{fill:#FBBA6B;}
	.st38{fill:#FCD86F;}
	.st39{fill:#EF8E85;}
	.st40{fill:#E6BE65;}
	.st41{fill:#C9DB84;}
	.st42{fill:#FAD367;}
	.st43{fill:#F7BC74;}
	.st44{fill:#FBD872;}
	.st45{fill:#D1E08B;}
	.st46{fill:#EE8A7E;}
	.st47{fill:#F38B85;}
	.st48{fill:#FDCF6A;}
	.st49{fill:#CADB86;}
	.st50{fill:none;}
	.st51{fill:#010101;}
	.st52{fill:#010101;stroke:#010101;stroke-miterlimit:10;}
</style><path d="M785.19,921.84c-11.45-24.11-24.01-50.55-37-77.9c-13.33,2.49-25.34,4.74-40.77,7.62  c-12.68-52.98-25.19-104.79-37.48-156.66c-13.96-58.92-27.87-117.84-41.46-176.84c-3.24-14.09-8.17-22.41-25.19-25.33  c-41.59-7.14-82.93-16.57-123.61-27.8c-17.47-4.82-25.71,0.6-35.84,13.27c-67.15,84-135.09,167.38-202.71,251  c-3.63,4.49-6.79,9.38-10.79,14.96c-9.61-7.22-16.2-12.19-25.05-18.84c-18.82,14.82-37.76,29.72-56.7,44.63  c-1.12-0.98-2.23-1.95-3.35-2.93c7.86-13.78,15.85-27.48,23.53-41.36c5.73-10.36,15.66-20.46,0.71-32.09  c-2.19-1.7-1.1-12.17,1.82-14.66c3-2.56,11.49-2.34,15.14,0.18c12.6,8.7,24.14,18.94,38.65,30.66  c104.76-129.16,209.05-257.76,314.11-387.29c-12.23-6.5-23.25-12.36-35.87-19.07c-103.05,127.1-206.1,254.2-309.15,381.3  c-7.63-1.93-15.25-3.87-22.88-5.8c23.23-31.39,42.63-55.9,54.62-70.8c161.94-201.35,243.85-301.19,253.92-313.56  c12.93-15.88,21.77-29.75,18.59-53.55c-6.17-46.16,38.36-96.72,85.95-98.32c24.6-0.83,29.61-11.51,34.93-31.3  c4.1-15.26-4.44-38.82,21.6-43.78c-0.14,15.88,2.78,32.57-1.15,47.44c-5.79,21.92-3.63,34.59,16.91,49.87  c42.39,31.53,47.06,78.08,20.56,126.18c-4.56,8.27-6.87,20.31-4.78,29.35c37.08,160.14,76.74,319.72,111.49,480.35  C792.36,839.72,785.19,882.01,785.19,921.84z M763.7,815.58c-38.8-165.15-76.96-327.54-115.52-491.65  c-13.58,4.61-24.83,8.43-38.38,13.03c38.27,162.82,76.24,324.36,114.49,487.12C736.88,821.36,747.93,818.98,763.7,815.58z   M669.37,238.08c0.07-39.06-34.38-75-72.36-75.47c-40.25-0.5-75.07,34.22-75.2,74.99c-0.13,40.29,32.97,76.22,70.35,76.36  C635.05,314.12,669.29,280.47,669.37,238.08z M475.58,439.97c49.48,11.38,94.31,21.69,142.61,32.79  c-10.68-43.36-19.6-81.58-29.86-119.43c-1.89-6.99-8.8-17.15-14.08-17.59c-7.36-0.61-17.56,4.68-22.71,10.72  C526.7,375.56,503.14,405.76,475.58,439.97z"/><path class="st4" d="M763.7,815.58c-15.77,3.4-26.83,5.79-39.41,8.5c-38.25-162.76-76.22-324.29-114.49-487.12  c13.55-4.6,24.8-8.42,38.38-13.03C686.74,488.03,724.9,650.43,763.7,815.58z"/><path class="st5" d="M669.37,238.08c-0.08,42.39-34.32,76.05-77.21,75.88c-37.38-0.14-70.48-36.07-70.35-76.36  c0.13-40.77,34.95-75.49,75.2-74.99C634.98,163.08,669.44,199.02,669.37,238.08z M587.38,274.13c28.9,0.54,41.98-11.98,45.5-33.07  c3.1-18.5-17.87-40.66-36.8-39.61c-21.9,1.21-36.36,13.82-37.13,35.81C558.19,259.09,570.33,272.75,587.38,274.13z"/><path class="st6" d="M475.58,439.97c27.56-34.21,51.12-64.41,75.96-93.51c5.15-6.04,15.35-11.33,22.71-10.72  c5.28,0.44,12.18,10.6,14.08,17.59c10.26,37.85,19.18,76.07,29.86,119.43C569.89,461.65,525.07,451.35,475.58,439.97z"/><path d="M587.38,274.13c-17.05-1.38-29.19-15.04-28.42-36.88c0.77-21.99,15.23-34.59,37.13-35.81c18.92-1.05,39.89,21.11,36.8,39.61  C629.35,262.15,616.28,274.67,587.38,274.13z"/><polyline class="st4" points="503.33,303.42 539.19,322.49 225.09,709.77 194.18,684.72 "/></svg>